<mxfile host="app.diagrams.net" modified="2021-09-13T11:05:54.748Z" agent="5.0 (Windows NT 10.0; Win64; x64) AppleWebKit/537.36 (KHTML, like Gecko) Chrome/91.0.4472.124 Safari/537.36" etag="nu9G4ezRGLE0-XpmJq6c" version="15.1.4" type="github">
  <diagram id="qIk6Zi41ohLtAsYoslln" name="第 1 页">
    <mxGraphModel dx="1422" dy="804" grid="1" gridSize="10" guides="1" tooltips="1" connect="1" arrows="1" fold="1" page="1" pageScale="1" pageWidth="827" pageHeight="1169" math="0" shadow="0">
      <root>
        <mxCell id="0" />
        <mxCell id="1" parent="0" />
        <mxCell id="v8N0p1B7ZnIwDNWOPFgC-1" value="Prometheus :&amp;nbsp;" style="text;html=1;align=center;verticalAlign=middle;resizable=0;points=[];autosize=1;strokeColor=none;fillColor=none;" vertex="1" parent="1">
          <mxGeometry x="25" y="80" width="90" height="20" as="geometry" />
        </mxCell>
        <mxCell id="v8N0p1B7ZnIwDNWOPFgC-2" value="监控报警系统&lt;br&gt;" style="text;html=1;align=center;verticalAlign=middle;resizable=0;points=[];autosize=1;strokeColor=none;fillColor=none;" vertex="1" parent="1">
          <mxGeometry x="60" y="110" width="90" height="20" as="geometry" />
        </mxCell>
        <mxCell id="v8N0p1B7ZnIwDNWOPFgC-3" value="自带的时序 数据库" style="text;html=1;align=center;verticalAlign=middle;resizable=0;points=[];autosize=1;strokeColor=none;fillColor=none;" vertex="1" parent="1">
          <mxGeometry x="70" y="140" width="110" height="20" as="geometry" />
        </mxCell>
        <mxCell id="v8N0p1B7ZnIwDNWOPFgC-4" value="https://prometheus.io/download/&amp;nbsp; &amp;nbsp;进行下载" style="text;html=1;align=center;verticalAlign=middle;resizable=0;points=[];autosize=1;strokeColor=none;fillColor=none;" vertex="1" parent="1">
          <mxGeometry x="40" y="210" width="240" height="20" as="geometry" />
        </mxCell>
        <mxCell id="v8N0p1B7ZnIwDNWOPFgC-5" value="&lt;p style=&quot;line-height: 160%&quot;&gt;&lt;/p&gt;&lt;div&gt;&lt;br&gt;&lt;/div&gt;&lt;p&gt;&lt;/p&gt;" style="text;html=1;align=left;verticalAlign=middle;resizable=0;points=[];autosize=1;strokeColor=none;fillColor=none;" vertex="1" parent="1">
          <mxGeometry x="50" y="285" width="20" height="40" as="geometry" />
        </mxCell>
        <mxCell id="v8N0p1B7ZnIwDNWOPFgC-6" value="&lt;p style=&quot;line-height: 160%&quot;&gt;&lt;/p&gt;&lt;div&gt;nohup /data/prometheus/prometheus&amp;nbsp;&lt;/div&gt;&lt;div&gt;--web.listen-address=0.0.0.0:9090&amp;nbsp;&lt;/div&gt;&lt;div&gt;--config.file=/data/prometheus/prometheus.yml&amp;nbsp;&lt;/div&gt;&lt;div&gt;--web.enable-lifecycle&amp;nbsp;&lt;/div&gt;&lt;div&gt;--storage.tsdb.path=/data/prometheus/data&amp;nbsp;&lt;/div&gt;&lt;div&gt;--storage.tsdb.retention.time=15d &amp;amp;&lt;/div&gt;&lt;p&gt;&lt;/p&gt;" style="text;html=1;strokeColor=none;fillColor=none;align=left;verticalAlign=middle;whiteSpace=wrap;rounded=0;" vertex="1" parent="1">
          <mxGeometry x="40" y="260" width="390" height="90" as="geometry" />
        </mxCell>
      </root>
    </mxGraphModel>
  </diagram>
</mxfile>
